<mxfile host="app.diagrams.net" modified="2024-05-16T01:49:48.365Z" agent="Mozilla/5.0 (Macintosh; Intel Mac OS X 10_15_7) AppleWebKit/605.1.15 (KHTML, like Gecko) Version/17.1.2 Safari/605.1.15" version="24.4.0" etag="SHLDec2ALZopzlHlopYJ" type="github">
  <diagram name="第 1 页" id="BTvtgcsHV9EeaYfutmnJ">
    <mxGraphModel>
      <root>
        <mxCell id="0" />
        <mxCell id="1" parent="0" />
      </root>
    </mxGraphModel>
  </diagram>
</mxfile>
